# MagicaVoxel @ Ephtracy

# group
o 

# material
mtllib untitled.vox.mtl
usemtl palette

# normals
vn -1 0 0
vn 1 0 0
vn 0 0 1
vn 0 0 -1
vn 0 -1 0
vn 0 1 0

# texcoords
vt 0.978516 0.5
vt 0.982422 0.5
vt 0.986328 0.5
vt 0.990234 0.5

# verts
v -4 -6 4
v -4 -6 2.8
v -4 9.6 3.2
v -4 9.6 2.8
v -4 10 4
v -4 10 3.2
v -3.8 -6 2.8
v -3.8 -6 2.4
v -3.8 9.2 2.8
v -3.8 9.2 2.4
v -3.6 -6 2.4
v -3.6 -6 2
v -3.6 8.8 2.4
v -3.6 8.8 2
v -3.4 -6 2
v -3.4 -6 0.5
v -3.4 8.4 2
v -3.4 8.4 0.5
v -3.3 -6 0.5
v -3.3 -6 0.3
v -3.3 8.4 0.5
v -3.3 8.4 0.3
v 1.2 7.2 2.8
v 1.2 7.2 0.3
v 1.2 7.6 2.8
v 1.2 7.6 0.3
v 1.6 6.8 2.8
v 1.6 6.8 0.3
v 1.6 7.2 2.8
v 1.6 7.2 0.3
v 1.6 8 3.2
v 1.6 8 2.8
v 1.6 8.4 3.2
v 1.6 8.4 2.8
v 2 7.6 3.2
v 2 7.6 2.8
v 2 8 3.2
v 2 8 2.8
v 2.2 8.4 3.6
v 2.2 8.4 3.2
v 2.2 8.8 3.6
v 2.2 8.8 3.2
v 2.4 4.8 2.8
v 2.4 4.8 0.3
v 2.4 6.8 2.8
v 2.4 6.8 0.3
v 2.6 4 2.8
v 2.6 4 0.3
v 2.6 4.8 2.8
v 2.6 4.8 0.3
v 2.6 8 3.6
v 2.6 8 3.2
v 2.6 8.4 3.6
v 2.6 8.4 3.2
v 2.8 -6 2.8
v 2.8 -6 0.3
v 2.8 4 2.8
v 2.8 4 0.3
v 2.8 5.6 3.2
v 2.8 5.6 2.8
v 2.8 7.6 3.2
v 2.8 7.6 2.8
v 3 4.8 3.2
v 3 4.8 2.8
v 3 5.6 3.2
v 3 5.6 2.8
v 3 6.8 3.6
v 3 6.8 3.2
v 3 8 3.6
v 3 8 3.2
v 3 8.8 4
v 3 8.8 3.6
v 3 9.2 4
v 3 9.2 3.6
v 3.2 -6 3.2
v 3.2 -6 2.8
v 3.2 4.8 3.2
v 3.2 4.8 2.8
v 3.2 6 3.6
v 3.2 6 3.2
v 3.2 6.8 3.6
v 3.2 6.8 3.2
v 3.4 -6 3.6
v 3.4 -6 3.2
v 3.4 6 3.6
v 3.4 6 3.2
v 3.4 7.6 4
v 3.4 7.6 3.6
v 3.4 8.8 4
v 3.4 8.8 3.6
v 3.6 -6 4
v 3.6 -6 3.6
v 3.6 7.6 4
v 3.6 7.6 3.6
v -3.6 -6 4
v -3.6 -6 3.6
v -3.6 8 4
v -3.6 8 3.6
v -3.4 -6 3.6
v -3.4 -6 3.2
v -3.4 6.4 3.6
v -3.4 6.4 3.2
v -3.4 8 4
v -3.4 8 3.6
v -3.4 8.8 4
v -3.4 8.8 3.6
v -3.2 -6 3.2
v -3.2 -6 2.8
v -3.2 5.2 3.2
v -3.2 5.2 2.8
v -3.2 6.4 3.6
v -3.2 6.4 3.2
v -3.2 7.2 3.6
v -3.2 7.2 3.2
v -3 5.2 3.2
v -3 5.2 2.8
v -3 6 3.2
v -3 6 2.8
v -3 7.2 3.6
v -3 7.2 3.2
v -3 8 3.6
v -3 8 3.2
v -2.8 -6 2.8
v -2.8 -6 0.3
v -2.8 4.4 2.8
v -2.8 4.4 0.3
v -2.8 6 3.2
v -2.8 6 2.8
v -2.8 7.6 3.2
v -2.8 7.6 2.8
v -2.8 8.8 4
v -2.8 8.8 3.6
v -2.8 9.2 4
v -2.8 9.2 3.6
v -2.6 4.4 2.8
v -2.6 4.4 0.3
v -2.6 5.2 2.8
v -2.6 5.2 0.3
v -2.4 5.2 2.8
v -2.4 5.2 0.3
v -2.4 6.8 2.8
v -2.4 6.8 0.3
v -2.2 8 3.6
v -2.2 8 3.2
v -2.2 8.4 3.6
v -2.2 8.4 3.2
v -1.8 8.4 3.6
v -1.8 8.4 3.2
v -1.8 8.8 3.6
v -1.8 8.8 3.2
v -1.6 6.8 2.8
v -1.6 6.8 0.3
v -1.6 7.2 2.8
v -1.6 7.2 0.3
v -1.6 7.6 3.2
v -1.6 7.6 2.8
v -1.6 8 3.2
v -1.6 8 2.8
v -1.2 7.2 2.8
v -1.2 7.2 0.3
v -1.2 7.6 2.8
v -1.2 7.6 0.3
v -1.2 8 3.2
v -1.2 8 2.8
v -1.2 8.4 3.2
v -1.2 8.4 2.8
v 3.4 -6 2
v 3.4 -6 0.3
v 3.4 8.4 2
v 3.4 8.4 0.3
v 3.6 -6 2.4
v 3.6 -6 2
v 3.6 8.8 2.4
v 3.6 8.8 2
v 3.8 -6 2.8
v 3.8 -6 2.4
v 3.8 9.2 2.8
v 3.8 9.2 2.4
v 4 -6 4
v 4 -6 2.8
v 4 9.6 3.2
v 4 9.6 2.8
v 4 10 4
v 4 10 3.2
v -4 -6 4
v -4 10 4
v -3.6 -6 4
v -3.6 8 4
v -3.4 8 4
v -3.4 8.8 4
v -2.8 8.8 4
v -2.8 9.2 4
v 3 8.8 4
v 3 9.2 4
v 3.4 7.6 4
v 3.4 8.8 4
v 3.6 -6 4
v 3.6 7.6 4
v 4 -6 4
v 4 10 4
v -3.6 -6 3.6
v -3.6 8 3.6
v -3.4 -6 3.6
v -3.4 6.4 3.6
v -3.4 8 3.6
v -3.4 8.8 3.6
v -3.2 6.4 3.6
v -3.2 7.2 3.6
v -3 7.2 3.6
v -3 8 3.6
v -2.8 8.8 3.6
v -2.8 9.2 3.6
v -2.2 8 3.6
v -2.2 8.4 3.6
v -1.8 8.4 3.6
v -1.8 8.8 3.6
v 2.2 8.4 3.6
v 2.2 8.8 3.6
v 2.6 8 3.6
v 2.6 8.4 3.6
v 3 6.8 3.6
v 3 8 3.6
v 3 8.8 3.6
v 3 9.2 3.6
v 3.2 6 3.6
v 3.2 6.8 3.6
v 3.4 -6 3.6
v 3.4 6 3.6
v 3.4 7.6 3.6
v 3.4 8.8 3.6
v 3.6 -6 3.6
v 3.6 7.6 3.6
v -3.4 -6 3.2
v -3.4 6.4 3.2
v -3.2 -6 3.2
v -3.2 5.2 3.2
v -3.2 6.4 3.2
v -3.2 7.2 3.2
v -3 5.2 3.2
v -3 6 3.2
v -3 7.2 3.2
v -3 8 3.2
v -2.8 6 3.2
v -2.8 7.6 3.2
v -2.2 8 3.2
v -2.2 8.4 3.2
v -1.8 8.4 3.2
v -1.8 8.8 3.2
v -1.6 7.6 3.2
v -1.6 8 3.2
v -1.2 8 3.2
v -1.2 8.4 3.2
v 1.6 8 3.2
v 1.6 8.4 3.2
v 2 7.6 3.2
v 2 8 3.2
v 2.2 8.4 3.2
v 2.2 8.8 3.2
v 2.6 8 3.2
v 2.6 8.4 3.2
v 2.8 5.6 3.2
v 2.8 7.6 3.2
v 3 4.8 3.2
v 3 5.6 3.2
v 3 6.8 3.2
v 3 8 3.2
v 3.2 -6 3.2
v 3.2 4.8 3.2
v 3.2 6 3.2
v 3.2 6.8 3.2
v 3.4 -6 3.2
v 3.4 6 3.2
v -3.2 -6 2.8
v -3.2 5.2 2.8
v -3 5.2 2.8
v -3 6 2.8
v -2.8 -6 2.8
v -2.8 4.4 2.8
v -2.8 6 2.8
v -2.8 7.6 2.8
v -2.6 4.4 2.8
v -2.6 5.2 2.8
v -2.4 5.2 2.8
v -2.4 6.8 2.8
v -1.6 6.8 2.8
v -1.6 7.2 2.8
v -1.6 7.6 2.8
v -1.6 8 2.8
v -1.2 7.2 2.8
v -1.2 7.6 2.8
v -1.2 8 2.8
v -1.2 8.4 2.8
v 1.2 7.2 2.8
v 1.2 7.6 2.8
v 1.6 6.8 2.8
v 1.6 7.2 2.8
v 1.6 8 2.8
v 1.6 8.4 2.8
v 2 7.6 2.8
v 2 8 2.8
v 2.4 4.8 2.8
v 2.4 6.8 2.8
v 2.6 4 2.8
v 2.6 4.8 2.8
v 2.8 -6 2.8
v 2.8 4 2.8
v 2.8 5.6 2.8
v 2.8 7.6 2.8
v 3 4.8 2.8
v 3 5.6 2.8
v 3.2 -6 2.8
v 3.2 4.8 2.8
v -4 9.6 3.2
v -4 10 3.2
v 4 9.6 3.2
v 4 10 3.2
v -4 -6 2.8
v -4 9.6 2.8
v -3.8 -6 2.8
v -3.8 9.2 2.8
v 3.8 -6 2.8
v 3.8 9.2 2.8
v 4 -6 2.8
v 4 9.6 2.8
v -3.8 -6 2.4
v -3.8 9.2 2.4
v -3.6 -6 2.4
v -3.6 8.8 2.4
v 3.6 -6 2.4
v 3.6 8.8 2.4
v 3.8 -6 2.4
v 3.8 9.2 2.4
v -3.6 -6 2
v -3.6 8.8 2
v -3.4 -6 2
v -3.4 8.4 2
v 3.4 -6 2
v 3.4 8.4 2
v 3.6 -6 2
v 3.6 8.8 2
v -3.4 -6 0.5
v -3.4 8.4 0.5
v -3.3 -6 0.5
v -3.3 8.4 0.5
v -3.3 -6 0.3
v -3.3 8.4 0.3
v -3.2 -6 0.3
v -3.2 8 0.3
v -2.8 -6 0.3
v -2.8 4.4 0.3
v -2.6 4.4 0.3
v -2.6 5.2 0.3
v -2.4 5.2 0.3
v -2.4 6.8 0.3
v -1.6 6.8 0.3
v -1.6 7.2 0.3
v -1.2 7.2 0.3
v -1.2 7.6 0.3
v 1.2 7.2 0.3
v 1.2 7.6 0.3
v 1.6 6.8 0.3
v 1.6 7.2 0.3
v 2.4 4.8 0.3
v 2.4 6.8 0.3
v 2.6 4 0.3
v 2.6 4.8 0.3
v 2.8 -6 0.3
v 2.8 4 0.3
v 3.2 -6 0.3
v 3.2 8 0.3
v 3.4 -6 0.3
v 3.4 8.4 0.3
v -4 -6 4
v -3.6 -6 4
v 3.6 -6 4
v 4 -6 4
v -3.6 -6 3.6
v -3.4 -6 3.6
v 3.4 -6 3.6
v 3.6 -6 3.6
v -3.4 -6 3.2
v -3.2 -6 3.2
v 3.2 -6 3.2
v 3.4 -6 3.2
v -4 -6 2.8
v -3.8 -6 2.8
v -3.2 -6 2.8
v -2.8 -6 2.8
v 2.8 -6 2.8
v 3.2 -6 2.8
v 3.8 -6 2.8
v 4 -6 2.8
v -3.8 -6 2.4
v -3.6 -6 2.4
v 3.6 -6 2.4
v 3.8 -6 2.4
v -3.6 -6 2
v -3.4 -6 2
v 3.4 -6 2
v 3.6 -6 2
v -3.4 -6 0.5
v -3.3 -6 0.5
v -3.3 -6 0.3
v -3.2 -6 0.3
v -2.8 -6 0.3
v 2.8 -6 0.3
v 3.2 -6 0.3
v 3.4 -6 0.3
v 2.6 4 2.8
v 2.8 4 2.8
v 2.6 4 0.3
v 2.8 4 0.3
v -2.8 4.4 2.8
v -2.6 4.4 2.8
v -2.8 4.4 0.3
v -2.6 4.4 0.3
v 3 4.8 3.2
v 3.2 4.8 3.2
v 2.4 4.8 2.8
v 2.6 4.8 2.8
v 3 4.8 2.8
v 3.2 4.8 2.8
v 2.4 4.8 0.3
v 2.6 4.8 0.3
v -3.2 5.2 3.2
v -3 5.2 3.2
v -3.2 5.2 2.8
v -3 5.2 2.8
v -2.6 5.2 2.8
v -2.4 5.2 2.8
v -2.6 5.2 0.3
v -2.4 5.2 0.3
v 2.8 5.6 3.2
v 3 5.6 3.2
v 2.8 5.6 2.8
v 3 5.6 2.8
v 3.2 6 3.6
v 3.4 6 3.6
v -3 6 3.2
v -2.8 6 3.2
v 3.2 6 3.2
v 3.4 6 3.2
v -3 6 2.8
v -2.8 6 2.8
v -3.4 6.4 3.6
v -3.2 6.4 3.6
v -3.4 6.4 3.2
v -3.2 6.4 3.2
v 3 6.8 3.6
v 3.2 6.8 3.6
v 3 6.8 3.2
v 3.2 6.8 3.2
v -2.4 6.8 2.8
v -1.6 6.8 2.8
v 1.6 6.8 2.8
v 2.4 6.8 2.8
v -2.4 6.8 0.3
v -1.6 6.8 0.3
v 1.6 6.8 0.3
v 2.4 6.8 0.3
v -3.2 7.2 3.6
v -3 7.2 3.6
v -3.2 7.2 3.2
v -3 7.2 3.2
v -1.6 7.2 2.8
v -1.2 7.2 2.8
v 1.2 7.2 2.8
v 1.6 7.2 2.8
v -1.6 7.2 0.3
v -1.2 7.2 0.3
v 1.2 7.2 0.3
v 1.6 7.2 0.3
v 3.4 7.6 4
v 3.6 7.6 4
v 3.4 7.6 3.6
v 3.6 7.6 3.6
v -2.8 7.6 3.2
v -1.6 7.6 3.2
v 2 7.6 3.2
v 2.8 7.6 3.2
v -2.8 7.6 2.8
v -1.6 7.6 2.8
v -1.2 7.6 2.8
v 1.2 7.6 2.8
v 2 7.6 2.8
v 2.8 7.6 2.8
v -1.2 7.6 0.3
v 1.2 7.6 0.3
v -3.6 8 4
v -3.4 8 4
v -3.6 8 3.6
v -3.4 8 3.6
v -3 8 3.6
v -2.2 8 3.6
v 2.6 8 3.6
v 3 8 3.6
v -3 8 3.2
v -2.2 8 3.2
v -1.6 8 3.2
v -1.2 8 3.2
v 1.6 8 3.2
v 2 8 3.2
v 2.6 8 3.2
v 3 8 3.2
v -1.6 8 2.8
v -1.2 8 2.8
v 1.6 8 2.8
v 2 8 2.8
v -2.2 8.4 3.6
v -1.8 8.4 3.6
v 2.2 8.4 3.6
v 2.6 8.4 3.6
v -2.2 8.4 3.2
v -1.8 8.4 3.2
v -1.2 8.4 3.2
v 1.6 8.4 3.2
v 2.2 8.4 3.2
v 2.6 8.4 3.2
v -1.2 8.4 2.8
v 1.6 8.4 2.8
v -3.4 8.8 4
v -2.8 8.8 4
v 3 8.8 4
v 3.4 8.8 4
v -3.4 8.8 3.6
v -2.8 8.8 3.6
v -1.8 8.8 3.6
v 2.2 8.8 3.6
v 3 8.8 3.6
v 3.4 8.8 3.6
v -1.8 8.8 3.2
v 2.2 8.8 3.2
v -2.8 9.2 4
v 3 9.2 4
v -2.8 9.2 3.6
v 3 9.2 3.6
v -3.4 8.4 2
v 3.4 8.4 2
v -3.4 8.4 0.5
v -3.3 8.4 0.5
v -3.3 8.4 0.3
v 3.4 8.4 0.3
v -3.6 8.8 2.4
v 3.6 8.8 2.4
v -3.6 8.8 2
v 3.6 8.8 2
v -3.8 9.2 2.8
v 3.8 9.2 2.8
v -3.8 9.2 2.4
v 3.8 9.2 2.4
v -4 9.6 3.2
v 4 9.6 3.2
v -4 9.6 2.8
v 4 9.6 2.8
v -4 10 4
v 4 10 4
v -4 10 3.2
v 4 10 3.2

# faces
f 3/1/1 2/1/1 1/1/1
f 4/1/1 2/1/1 3/1/1
f 5/1/1 3/1/1 1/1/1
f 6/1/1 3/1/1 5/1/1
f 9/1/1 8/1/1 7/1/1
f 10/1/1 8/1/1 9/1/1
f 13/2/1 12/2/1 11/2/1
f 14/2/1 12/2/1 13/2/1
f 17/3/1 16/3/1 15/3/1
f 18/3/1 16/3/1 17/3/1
f 21/3/1 20/3/1 19/3/1
f 22/3/1 20/3/1 21/3/1
f 25/4/1 24/4/1 23/4/1
f 26/4/1 24/4/1 25/4/1
f 29/4/1 28/4/1 27/4/1
f 30/4/1 28/4/1 29/4/1
f 33/3/1 32/3/1 31/3/1
f 34/3/1 32/3/1 33/3/1
f 37/3/1 36/3/1 35/3/1
f 38/3/1 36/3/1 37/3/1
f 41/2/1 40/2/1 39/2/1
f 42/2/1 40/2/1 41/2/1
f 45/4/1 44/4/1 43/4/1
f 46/4/1 44/4/1 45/4/1
f 49/4/1 48/4/1 47/4/1
f 50/4/1 48/4/1 49/4/1
f 53/2/1 52/2/1 51/2/1
f 54/2/1 52/2/1 53/2/1
f 57/4/1 56/4/1 55/4/1
f 58/4/1 56/4/1 57/4/1
f 61/3/1 60/3/1 59/3/1
f 62/3/1 60/3/1 61/3/1
f 65/3/1 64/3/1 63/3/1
f 66/3/1 64/3/1 65/3/1
f 69/2/1 68/2/1 67/2/1
f 70/2/1 68/2/1 69/2/1
f 73/1/1 72/1/1 71/1/1
f 74/1/1 72/1/1 73/1/1
f 77/3/1 76/3/1 75/3/1
f 78/3/1 76/3/1 77/3/1
f 81/2/1 80/2/1 79/2/1
f 82/2/1 80/2/1 81/2/1
f 85/2/1 84/2/1 83/2/1
f 86/2/1 84/2/1 85/2/1
f 89/1/1 88/1/1 87/1/1
f 90/1/1 88/1/1 89/1/1
f 93/1/1 92/1/1 91/1/1
f 94/1/1 92/1/1 93/1/1
f 95/1/2 96/1/2 97/1/2
f 97/1/2 96/1/2 98/1/2
f 99/2/2 100/2/2 101/2/2
f 101/2/2 100/2/2 102/2/2
f 103/1/2 104/1/2 105/1/2
f 105/1/2 104/1/2 106/1/2
f 107/3/2 108/3/2 109/3/2
f 109/3/2 108/3/2 110/3/2
f 111/2/2 112/2/2 113/2/2
f 113/2/2 112/2/2 114/2/2
f 115/3/2 116/3/2 117/3/2
f 117/3/2 116/3/2 118/3/2
f 119/2/2 120/2/2 121/2/2
f 121/2/2 120/2/2 122/2/2
f 123/4/2 124/4/2 125/4/2
f 125/4/2 124/4/2 126/4/2
f 127/3/2 128/3/2 129/3/2
f 129/3/2 128/3/2 130/3/2
f 131/1/2 132/1/2 133/1/2
f 133/1/2 132/1/2 134/1/2
f 135/4/2 136/4/2 137/4/2
f 137/4/2 136/4/2 138/4/2
f 139/4/2 140/4/2 141/4/2
f 141/4/2 140/4/2 142/4/2
f 143/2/2 144/2/2 145/2/2
f 145/2/2 144/2/2 146/2/2
f 147/2/2 148/2/2 149/2/2
f 149/2/2 148/2/2 150/2/2
f 151/4/2 152/4/2 153/4/2
f 153/4/2 152/4/2 154/4/2
f 155/3/2 156/3/2 157/3/2
f 157/3/2 156/3/2 158/3/2
f 159/4/2 160/4/2 161/4/2
f 161/4/2 160/4/2 162/4/2
f 163/3/2 164/3/2 165/3/2
f 165/3/2 164/3/2 166/3/2
f 167/3/2 168/3/2 169/3/2
f 169/3/2 168/3/2 170/3/2
f 171/2/2 172/2/2 173/2/2
f 173/2/2 172/2/2 174/2/2
f 175/1/2 176/1/2 177/1/2
f 177/1/2 176/1/2 178/1/2
f 179/1/2 180/1/2 181/1/2
f 181/1/2 180/1/2 182/1/2
f 179/1/2 181/1/2 183/1/2
f 183/1/2 181/1/2 184/1/2
f 187/1/3 186/1/3 185/1/3
f 188/1/3 186/1/3 187/1/3
f 189/1/3 186/1/3 188/1/3
f 190/1/3 186/1/3 189/1/3
f 191/1/3 186/1/3 190/1/3
f 192/1/3 186/1/3 191/1/3
f 194/1/3 186/1/3 192/1/3
f 196/1/3 194/1/3 193/1/3
f 198/1/3 196/1/3 195/1/3
f 199/1/3 198/1/3 197/1/3
f 200/1/3 186/1/3 194/1/3
f 200/1/3 198/1/3 199/1/3
f 200/1/3 194/1/3 196/1/3
f 200/1/3 196/1/3 198/1/3
f 203/2/3 202/2/3 201/2/3
f 204/2/3 202/2/3 203/2/3
f 205/2/3 202/2/3 204/2/3
f 207/2/3 206/2/3 205/2/3
f 207/2/3 205/2/3 204/2/3
f 208/2/3 206/2/3 207/2/3
f 209/2/3 206/2/3 208/2/3
f 210/2/3 206/2/3 209/2/3
f 211/2/3 206/2/3 210/2/3
f 213/2/3 211/2/3 210/2/3
f 213/2/3 212/2/3 211/2/3
f 214/2/3 212/2/3 213/2/3
f 215/2/3 212/2/3 214/2/3
f 216/2/3 212/2/3 215/2/3
f 218/2/3 212/2/3 216/2/3
f 220/2/3 218/2/3 217/2/3
f 222/2/3 220/2/3 219/2/3
f 223/2/3 212/2/3 218/2/3
f 223/2/3 218/2/3 220/2/3
f 223/2/3 220/2/3 222/2/3
f 224/2/3 212/2/3 223/2/3
f 226/2/3 222/2/3 221/2/3
f 226/2/3 223/2/3 222/2/3
f 228/2/3 226/2/3 225/2/3
f 229/2/3 223/2/3 226/2/3
f 229/2/3 226/2/3 228/2/3
f 230/2/3 223/2/3 229/2/3
f 231/2/3 228/2/3 227/2/3
f 231/2/3 229/2/3 228/2/3
f 232/2/3 229/2/3 231/2/3
f 235/3/3 234/3/3 233/3/3
f 236/3/3 234/3/3 235/3/3
f 237/3/3 234/3/3 236/3/3
f 239/3/3 238/3/3 237/3/3
f 239/3/3 237/3/3 236/3/3
f 240/3/3 238/3/3 239/3/3
f 241/3/3 238/3/3 240/3/3
f 243/3/3 242/3/3 241/3/3
f 243/3/3 241/3/3 240/3/3
f 244/3/3 242/3/3 243/3/3
f 245/3/3 242/3/3 244/3/3
f 247/3/3 246/3/3 245/3/3
f 249/3/3 245/3/3 244/3/3
f 249/3/3 248/3/3 247/3/3
f 249/3/3 247/3/3 245/3/3
f 250/3/3 248/3/3 249/3/3
f 251/3/3 248/3/3 250/3/3
f 252/3/3 248/3/3 251/3/3
f 254/3/3 248/3/3 252/3/3
f 256/3/3 254/3/3 253/3/3
f 257/3/3 248/3/3 254/3/3
f 257/3/3 256/3/3 255/3/3
f 257/3/3 254/3/3 256/3/3
f 258/3/3 248/3/3 257/3/3
f 259/3/3 257/3/3 255/3/3
f 260/3/3 257/3/3 259/3/3
f 262/3/3 259/3/3 255/3/3
f 264/3/3 262/3/3 261/3/3
f 265/3/3 262/3/3 264/3/3
f 266/3/3 259/3/3 262/3/3
f 266/3/3 262/3/3 265/3/3
f 268/3/3 265/3/3 264/3/3
f 268/3/3 264/3/3 263/3/3
f 269/3/3 265/3/3 268/3/3
f 270/3/3 265/3/3 269/3/3
f 271/3/3 268/3/3 267/3/3
f 271/3/3 269/3/3 268/3/3
f 272/3/3 269/3/3 271/3/3
f 275/4/3 274/4/3 273/4/3
f 277/4/3 275/4/3 273/4/3
f 277/4/3 276/4/3 275/4/3
f 278/4/3 276/4/3 277/4/3
f 279/4/3 276/4/3 278/4/3
f 281/4/3 280/4/3 279/4/3
f 281/4/3 279/4/3 278/4/3
f 282/4/3 280/4/3 281/4/3
f 283/4/3 280/4/3 282/4/3
f 284/4/3 280/4/3 283/4/3
f 285/4/3 280/4/3 284/4/3
f 286/4/3 280/4/3 285/4/3
f 287/4/3 280/4/3 286/4/3
f 289/4/3 288/4/3 287/4/3
f 289/4/3 287/4/3 286/4/3
f 290/4/3 288/4/3 289/4/3
f 291/4/3 288/4/3 290/4/3
f 294/4/3 292/4/3 291/4/3
f 294/4/3 291/4/3 290/4/3
f 296/4/3 294/4/3 293/4/3
f 297/4/3 292/4/3 294/4/3
f 297/4/3 294/4/3 296/4/3
f 298/4/3 292/4/3 297/4/3
f 299/4/3 296/4/3 295/4/3
f 299/4/3 297/4/3 296/4/3
f 300/4/3 297/4/3 299/4/3
f 302/4/3 299/4/3 295/4/3
f 304/4/3 302/4/3 301/4/3
f 306/4/3 304/4/3 303/4/3
f 307/4/3 302/4/3 304/4/3
f 307/4/3 304/4/3 306/4/3
f 308/4/3 299/4/3 302/4/3
f 308/4/3 302/4/3 307/4/3
f 309/4/3 307/4/3 306/4/3
f 309/4/3 306/4/3 305/4/3
f 310/4/3 307/4/3 309/4/3
f 311/4/3 309/4/3 305/4/3
f 312/4/3 309/4/3 311/4/3
f 313/1/4 314/1/4 315/1/4
f 315/1/4 314/1/4 316/1/4
f 317/1/4 318/1/4 319/1/4
f 319/1/4 318/1/4 320/1/4
f 320/1/4 318/1/4 322/1/4
f 321/1/4 322/1/4 323/1/4
f 322/1/4 318/1/4 324/1/4
f 323/1/4 322/1/4 324/1/4
f 325/1/4 326/1/4 327/1/4
f 327/1/4 326/1/4 328/1/4
f 328/1/4 326/1/4 330/1/4
f 329/1/4 330/1/4 331/1/4
f 330/1/4 326/1/4 332/1/4
f 331/1/4 330/1/4 332/1/4
f 333/2/4 334/2/4 335/2/4
f 335/2/4 334/2/4 336/2/4
f 336/2/4 334/2/4 338/2/4
f 337/2/4 338/2/4 339/2/4
f 338/2/4 334/2/4 340/2/4
f 339/2/4 338/2/4 340/2/4
f 341/3/4 342/3/4 343/3/4
f 343/3/4 342/3/4 344/3/4
f 345/3/4 346/3/4 347/3/4
f 347/3/4 346/3/4 348/3/4
f 347/4/4 348/4/4 349/4/4
f 349/4/4 348/4/4 350/4/4
f 350/4/4 348/4/4 351/4/4
f 351/4/4 348/4/4 352/4/4
f 352/4/4 348/4/4 353/4/4
f 353/4/4 348/4/4 354/4/4
f 354/4/4 348/4/4 355/4/4
f 355/4/4 348/4/4 356/4/4
f 356/4/4 348/4/4 357/4/4
f 357/4/4 348/4/4 358/4/4
f 358/4/4 348/4/4 360/4/4
f 359/4/4 360/4/4 362/4/4
f 361/4/4 362/4/4 364/4/4
f 363/4/4 364/4/4 366/4/4
f 365/4/4 366/4/4 368/4/4
f 367/4/4 368/4/4 369/4/4
f 348/3/4 346/3/4 370/3/4
f 369/4/4 368/4/4 370/4/4
f 360/4/4 348/4/4 370/4/4
f 368/4/4 366/4/4 370/4/4
f 362/4/4 360/4/4 370/4/4
f 366/4/4 364/4/4 370/4/4
f 364/4/4 362/4/4 370/4/4
f 369/3/4 370/3/4 371/3/4
f 370/3/4 346/3/4 372/3/4
f 371/3/4 370/3/4 372/3/4
f 377/1/5 374/1/5 373/1/5
f 380/1/5 376/1/5 375/1/5
f 381/2/5 378/2/5 377/2/5
f 384/2/5 380/2/5 379/2/5
f 385/1/5 377/1/5 373/1/5
f 386/1/5 377/1/5 385/1/5
f 387/3/5 382/3/5 381/3/5
f 390/3/5 384/3/5 383/3/5
f 391/1/5 376/1/5 380/1/5
f 392/1/5 376/1/5 391/1/5
f 393/1/5 377/1/5 386/1/5
f 394/2/5 381/2/5 377/2/5
f 394/1/5 377/1/5 393/1/5
f 395/2/5 380/2/5 384/2/5
f 395/1/5 391/1/5 380/1/5
f 396/1/5 391/1/5 395/1/5
f 397/2/5 381/2/5 394/2/5
f 398/3/5 387/3/5 381/3/5
f 398/2/5 381/2/5 397/2/5
f 399/2/5 395/2/5 384/2/5
f 399/3/5 384/3/5 390/3/5
f 400/2/5 395/2/5 399/2/5
f 401/3/5 387/3/5 398/3/5
f 402/3/5 387/3/5 401/3/5
f 403/3/5 387/3/5 402/3/5
f 404/4/5 388/4/5 387/4/5
f 404/3/5 387/3/5 403/3/5
f 405/4/5 388/4/5 404/4/5
f 406/4/5 390/4/5 389/4/5
f 407/3/5 399/3/5 390/3/5
f 407/4/5 390/4/5 406/4/5
f 408/3/5 399/3/5 407/3/5
f 411/4/5 410/4/5 409/4/5
f 412/4/5 410/4/5 411/4/5
f 415/4/5 414/4/5 413/4/5
f 416/4/5 414/4/5 415/4/5
f 421/3/5 418/3/5 417/3/5
f 422/3/5 418/3/5 421/3/5
f 423/4/5 420/4/5 419/4/5
f 424/4/5 420/4/5 423/4/5
f 427/3/5 426/3/5 425/3/5
f 428/3/5 426/3/5 427/3/5
f 431/4/5 430/4/5 429/4/5
f 432/4/5 430/4/5 431/4/5
f 435/3/5 434/3/5 433/3/5
f 436/3/5 434/3/5 435/3/5
f 441/2/5 438/2/5 437/2/5
f 442/2/5 438/2/5 441/2/5
f 443/3/5 440/3/5 439/3/5
f 444/3/5 440/3/5 443/3/5
f 447/2/5 446/2/5 445/2/5
f 448/2/5 446/2/5 447/2/5
f 451/2/5 450/2/5 449/2/5
f 452/2/5 450/2/5 451/2/5
f 457/4/5 454/4/5 453/4/5
f 458/4/5 454/4/5 457/4/5
f 459/4/5 456/4/5 455/4/5
f 460/4/5 456/4/5 459/4/5
f 463/2/5 462/2/5 461/2/5
f 464/2/5 462/2/5 463/2/5
f 469/4/5 466/4/5 465/4/5
f 470/4/5 466/4/5 469/4/5
f 471/4/5 468/4/5 467/4/5
f 472/4/5 468/4/5 471/4/5
f 475/1/5 474/1/5 473/1/5
f 476/1/5 474/1/5 475/1/5
f 481/3/5 478/3/5 477/3/5
f 482/3/5 478/3/5 481/3/5
f 485/3/5 480/3/5 479/3/5
f 486/3/5 480/3/5 485/3/5
f 487/4/5 484/4/5 483/4/5
f 488/4/5 484/4/5 487/4/5
f 491/1/5 490/1/5 489/1/5
f 492/1/5 490/1/5 491/1/5
f 497/2/5 494/2/5 493/2/5
f 498/2/5 494/2/5 497/2/5
f 503/2/5 496/2/5 495/2/5
f 504/2/5 496/2/5 503/2/5
f 505/3/5 500/3/5 499/3/5
f 506/3/5 500/3/5 505/3/5
f 507/3/5 502/3/5 501/3/5
f 508/3/5 502/3/5 507/3/5
f 513/2/5 510/2/5 509/2/5
f 514/2/5 510/2/5 513/2/5
f 517/2/5 512/2/5 511/2/5
f 518/2/5 512/2/5 517/2/5
f 519/3/5 516/3/5 515/3/5
f 520/3/5 516/3/5 519/3/5
f 525/1/5 522/1/5 521/1/5
f 526/1/5 522/1/5 525/1/5
f 529/1/5 524/1/5 523/1/5
f 530/1/5 524/1/5 529/1/5
f 531/2/5 528/2/5 527/2/5
f 532/2/5 528/2/5 531/2/5
f 535/1/5 534/1/5 533/1/5
f 536/1/5 534/1/5 535/1/5
f 537/3/6 538/3/6 539/3/6
f 539/3/6 538/3/6 540/3/6
f 540/3/6 538/3/6 541/3/6
f 541/3/6 538/3/6 542/3/6
f 543/2/6 544/2/6 545/2/6
f 545/2/6 544/2/6 546/2/6
f 547/1/6 548/1/6 549/1/6
f 549/1/6 548/1/6 550/1/6
f 551/1/6 552/1/6 553/1/6
f 553/1/6 552/1/6 554/1/6
f 555/1/6 556/1/6 557/1/6
f 557/1/6 556/1/6 558/1/6
